<?xml version="1.0" encoding="UTF-8"?>
<svg width="46px" height="39px" viewBox="0 0 46 39" version="1.1" xmlns="http://www.w3.org/2000/svg" xmlns:xlink="http://www.w3.org/1999/xlink">
    <!-- Generator: Sketch 61 (89581) - https://sketch.com -->
    <title>Back to top</title>
    <desc>Created with Sketch.</desc>
    <g id="Design" stroke="none" stroke-width="1" fill="none" fill-rule="evenodd">
        <g id="Desktop-HD" transform="translate(-445.000000, -2501.000000)" fill="#00F684">
            <g id="Footer" transform="translate(0.000000, 1903.000000)">
                <g id="Group" transform="translate(240.000000, 598.000000)">
                    <g id="Back-to-top" transform="translate(205.000000, 0.000000)">
                        <polygon id="Fill-1" points="21.015 0.0006 21.015 3.5026 17.511 3.5026 17.511 7.0056 14.009 7.0056 14.009 10.5076 10.508 10.5076 10.508 14.0096 7.005 14.0096 7.005 17.5116 3.503 17.5116 3.503 21.0146 0 21.0146 0 24.5166 14.009 24.5166 14.009 38.5266 17.511 38.5266 28.02 38.5266 31.523 38.5266 31.523 24.5166 45.532 24.5166 45.532 21.0146 31.523 21.0146 38.527 21.0146 42.029 21.0146 42.029 17.5116 38.527 17.5116 38.527 14.0096 35.024 14.0096 35.024 10.5076 31.523 10.5076 31.523 7.0056 28.02 7.0056 28.02 3.5026 24.518 3.5026 24.518 0.0006"></polygon>
                        <polygon id="Fill-2" points="17.513 7.0049 21.015 7.0049 21.015 3.5019 17.513 3.5019"></polygon>
                        <polygon id="Fill-3" points="21.015 3.5029 24.518 3.5029 24.518 0.0009 21.015 0.0009"></polygon>
                        <polygon id="Fill-4" points="14.01 10.5069 17.513 10.5069 17.513 7.0049 14.01 7.0049"></polygon>
                        <polygon id="Fill-5" points="10.508 14.0099 14.01 14.0099 14.01 10.5069 10.508 10.5069"></polygon>
                        <polygon id="Fill-6" points="7.005 17.5119 10.507 17.5119 10.507 14.0099 7.005 14.0099"></polygon>
                        <polygon id="Fill-7" points="3.503 21.0149 7.005 21.0149 7.005 17.5119 3.503 17.5119"></polygon>
                        <polygon id="Fill-8" points="0 24.5169 17.513 24.5169 17.513 21.0149 0 21.0149"></polygon>
                        <polygon id="Fill-9" points="14.009 38.5269 31.522 38.5269 31.522 35.0249 14.009 35.0249"></polygon>
                        <polygon id="Fill-10" points="14.009 38.5269 17.513 38.5269 17.513 24.5169 14.009 24.5169"></polygon>
                        <polygon id="Fill-11" points="24.518 7.0049 28.02 7.0049 28.02 3.5019 24.518 3.5019"></polygon>
                        <polygon id="Fill-12" points="28.02 10.5069 31.523 10.5069 31.523 7.0049 28.02 7.0049"></polygon>
                        <polygon id="Fill-13" points="31.522 14.0099 35.024 14.0099 35.024 10.5069 31.522 10.5069"></polygon>
                        <polygon id="Fill-14" points="35.024 17.5119 38.527 17.5119 38.527 14.0099 35.024 14.0099"></polygon>
                        <polygon id="Fill-15" points="38.527 21.0149 42.029 21.0149 42.029 17.5119 38.527 17.5119"></polygon>
                        <polygon id="Fill-16" points="28.02 24.5169 45.532 24.5169 45.532 21.0149 28.02 21.0149"></polygon>
                        <polygon id="Fill-17" points="28.02 38.5269 31.523 38.5269 31.523 24.5169 28.02 24.5169"></polygon>
                    </g>
                </g>
            </g>
        </g>
    </g>
</svg>