<?xml version="1.0" encoding="utf-8"?>
<!-- Generator: Adobe Illustrator 25.2.3, SVG Export Plug-In . SVG Version: 6.00 Build 0)  -->
<svg version="1.1" id="Livello_1" xmlns="http://www.w3.org/2000/svg" xmlns:xlink="http://www.w3.org/1999/xlink" x="0px" y="0px"
	 viewBox="0 0 203 65" style="enable-background:new 0 0 203 65;" xml:space="preserve">
<style type="text/css">
	.st0{fill-rule:evenodd;clip-rule:evenodd;fill:#89F68A;}
	.st1{fill-rule:evenodd;clip-rule:evenodd;fill:#FEFEFE;}
	.st2{enable-background:new    ;}
	.st3{fill:#FFFFFF;}
</style>
<desc>Created with Sketch.</desc>
<g id="Design">
	<g id="Desktop-HD" transform="translate(-1677.000000, -38.000000)">
		<g id="TOP-HEAD">
			<g id="BUY-now" transform="translate(1677.000000, 38.000000)">
				<g id="Group-3">
					<polygon id="Fill-1" class="st0" points="7,0 7,4.1 3.5,4.1 3.5,8.1 0,8.1 0,12.2 0,16.2 0,20.3 0,24.4 0,52.8 0,56.9 
						3.5,56.9 3.5,60.9 7,60.9 7,61.8 7,65 10.5,65 14,65 17.5,65 21,65 24.5,65 28,65 31.5,65 35,65 35,65 52.5,65 56,65 59.5,65 
						63,65 66.5,65 70,65 73.5,65 192.5,65 196,65 196,60.9 199.5,60.9 199.5,56.9 201.3,56.9 203,56.9 203,8.1 201.3,8.1 
						199.5,8.1 199.5,4.1 196,4.1 196,0 					"/>
					<path id="Fill-2" class="st1" d="M31,64.5h4H31z"/>
				</g>
				<g id="buy-now">
					<g>
						<g class="st2">
							<path class="st3" d="M20.6,19.8h8.7c2.9,0,5.1,0.6,6.7,1.8s2.4,2.8,2.4,4.7c0,2.8-1.6,4-3.1,4.8c1.8,0.7,3.9,2.1,3.9,5.2
								c0,4-3.6,6.8-9.2,6.8h-9.4V19.8z M26.2,29.2h2.5c1.6,0,2.6-0.2,3.1-0.6c0.5-0.4,0.8-1,0.8-1.7c0-1.3-0.7-2.5-3.8-2.5h-2.6
								V29.2z M26.2,38.5h3.4c3.2,0,3.9-1.4,3.9-2.6c0-1.3-0.8-2.6-3.9-2.6h-3.3V38.5z"/>
							<path class="st3" d="M46.2,41c-1.4-1.6-2.1-3.8-2.1-6.7V19.8h5.6v14.5c0,1.7,0.3,2.8,0.8,3.4s1.4,0.9,2.5,0.9s2-0.3,2.5-0.9
								s0.8-1.8,0.8-3.4V19.8h5.6v14.5c0,5.9-2.7,9.1-9,9.1C49.9,43.4,47.6,42.6,46.2,41z"/>
							<path class="st3" d="M74.2,34l-8.6-14.1h6.6l2.6,4.7l2.1,5l2.4-5l2.7-4.7h6.2l-8.6,14.1V43h-5.6V34z"/>
							<path class="st3" d="M116.6,19.8h6.8l5.9,17.8l-0.6-7.9v-10h4.7V43h-6.8l-5.9-17.8l0.6,7.8v10h-4.8V19.8z"/>
							<path class="st3" d="M141.3,40.3c-1.6-2.1-2.4-5-2.4-8.8c0-7.3,3.2-12.1,10.2-12.1c7,0,10.1,4.5,10.1,11.8
								c0,7.3-3.1,12.1-10.3,12.1C145.5,43.4,142.9,42.4,141.3,40.3z M153.5,31.4c0-4.2-0.7-7.2-4.5-7.2c-3.8,0-4.4,3-4.4,7.2
								c0,4.1,0.7,7.2,4.4,7.2C152.8,38.6,153.5,35.5,153.5,31.4z"/>
							<path class="st3" d="M161.9,19.8h5.4l0.8,10.8l0.3,7.2L171,27h4.2l2.6,10.7l0.4-7.2l0.8-10.8h5.2L181.6,43h-6.2l-2.4-9.1
								l-2.3,9.1h-6.2L161.9,19.8z"/>
						</g>
					</g>
					<g>
						<g class="st2">
							<path class="st3" d="M20.6,19.8h8.7c2.9,0,5.1,0.6,6.7,1.8s2.4,2.8,2.4,4.7c0,2.8-1.6,4-3.1,4.8c1.8,0.7,3.9,2.1,3.9,5.2
								c0,4-3.6,6.8-9.2,6.8h-9.4V19.8z M26.2,29.2h2.5c1.6,0,2.6-0.2,3.1-0.6c0.5-0.4,0.8-1,0.8-1.7c0-1.3-0.7-2.5-3.8-2.5h-2.6
								V29.2z M26.2,38.5h3.4c3.2,0,3.9-1.4,3.9-2.6c0-1.3-0.8-2.6-3.9-2.6h-3.3V38.5z"/>
							<path class="st3" d="M46.2,41c-1.4-1.6-2.1-3.8-2.1-6.7V19.8h5.6v14.5c0,1.7,0.3,2.8,0.8,3.4s1.4,0.9,2.5,0.9s2-0.3,2.5-0.9
								s0.8-1.8,0.8-3.4V19.8h5.6v14.5c0,5.9-2.7,9.1-9,9.1C49.9,43.4,47.6,42.6,46.2,41z"/>
							<path class="st3" d="M74.2,34l-8.6-14.1h6.6l2.6,4.7l2.1,5l2.4-5l2.7-4.7h6.2l-8.6,14.1V43h-5.6V34z"/>
							<path class="st3" d="M116.6,19.8h6.8l5.9,17.8l-0.6-7.9v-10h4.7V43h-6.8l-5.9-17.8l0.6,7.8v10h-4.8V19.8z"/>
							<path class="st3" d="M141.3,40.3c-1.6-2.1-2.4-5-2.4-8.8c0-7.3,3.2-12.1,10.2-12.1c7,0,10.1,4.5,10.1,11.8
								c0,7.3-3.1,12.1-10.3,12.1C145.5,43.4,142.9,42.4,141.3,40.3z M153.5,31.4c0-4.2-0.7-7.2-4.5-7.2c-3.8,0-4.4,3-4.4,7.2
								c0,4.1,0.7,7.2,4.4,7.2C152.8,38.6,153.5,35.5,153.5,31.4z"/>
							<path class="st3" d="M161.9,19.8h5.4l0.8,10.8l0.3,7.2L171,27h4.2l2.6,10.7l0.4-7.2l0.8-10.8h5.2L181.6,43h-6.2l-2.4-9.1
								l-2.3,9.1h-6.2L161.9,19.8z"/>
						</g>
					</g>
				</g>
			</g>
		</g>
	</g>
</g>
</svg>
