<?xml version="1.0" encoding="utf-8"?>
<!-- Generator: Adobe Illustrator 25.2.3, SVG Export Plug-In . SVG Version: 6.00 Build 0)  -->
<svg version="1.1" id="Livello_1" xmlns="http://www.w3.org/2000/svg" xmlns:xlink="http://www.w3.org/1999/xlink" x="0px" y="0px"
	 viewBox="0 0 223 76" style="enable-background:new 0 0 223 76;" xml:space="preserve">
<style type="text/css">
	.st0{filter:url(#Adobe_OpacityMaskFilter);}
	.st1{fill-rule:evenodd;clip-rule:evenodd;fill:#FFFFFF;}
	.st2{mask:url(#mask-2_1_);fill-rule:evenodd;clip-rule:evenodd;fill:#A1CDB9;}
	.st3{fill-rule:evenodd;clip-rule:evenodd;fill:#A1CDB9;}
	.st4{filter:url(#Adobe_OpacityMaskFilter_1_);}
	.st5{mask:url(#mask-4_1_);fill-rule:evenodd;clip-rule:evenodd;fill:#A1CDB9;}
	.st6{filter:url(#Adobe_OpacityMaskFilter_2_);}
	.st7{mask:url(#mask-4_2_);fill-rule:evenodd;clip-rule:evenodd;fill:#A1CDB9;}
	.st8{filter:url(#Adobe_OpacityMaskFilter_3_);}
	.st9{mask:url(#mask-4_3_);fill-rule:evenodd;clip-rule:evenodd;fill:#A1CDB9;}
	.st10{filter:url(#Adobe_OpacityMaskFilter_4_);}
	.st11{mask:url(#mask-4_4_);fill-rule:evenodd;clip-rule:evenodd;fill:#A1CDB9;}
	.st12{filter:url(#Adobe_OpacityMaskFilter_5_);}
	.st13{mask:url(#mask-4_5_);fill-rule:evenodd;clip-rule:evenodd;fill:#A1CDB9;}
	.st14{filter:url(#Adobe_OpacityMaskFilter_6_);}
	.st15{mask:url(#mask-4_6_);fill-rule:evenodd;clip-rule:evenodd;fill:#A1CDB9;}
	.st16{filter:url(#Adobe_OpacityMaskFilter_7_);}
	.st17{mask:url(#mask-4_7_);fill-rule:evenodd;clip-rule:evenodd;fill:#A1CDB9;}
	.st18{filter:url(#Adobe_OpacityMaskFilter_8_);}
	.st19{mask:url(#mask-4_8_);fill-rule:evenodd;clip-rule:evenodd;fill:#A1CDB9;}
	.st20{fill-rule:evenodd;clip-rule:evenodd;fill:#FEFEFE;}
	.st21{fill-rule:evenodd;clip-rule:evenodd;fill:#89F68A;}
	.st22{filter:url(#filter-6);}
	.st23{enable-background:new    ;}
	.st24{fill:#FFFFFF;}
	.st25{fill-rule:evenodd;clip-rule:evenodd;fill:#449A3F;}
</style>
<filter  filterUnits="objectBoundingBox" height="110.0%" id="filter-6" width="102.4%" x="-0.6%" y="-2.5%">
	<feOffset  dx="2" dy="2" in="SourceAlpha" result="shadowOffsetOuter1"></feOffset>
	
		<feColorMatrix  in="shadowOffsetOuter1" type="matrix" values="0 0 0 0 0.266666667   0 0 0 0 0.603921569   0 0 0 0 0.247058824  0 0 0 1 0">
		</feColorMatrix>
</filter>
<desc>Created with Sketch.</desc>
<g id="Design">
	<g id="Desktop-HD" transform="translate(-239.000000, -648.000000)">
		<g id="Head">
			<g id="Bitmap">
				<g id="Group-42" transform="translate(239.000000, 647.000000)">
					<g id="Group-17" transform="translate(0.000000, 0.403800)">
						<g id="Group-3" transform="translate(5.000000, 5.000000)">
							<g id="Clip-2">
							</g>
							<defs>
								<filter id="Adobe_OpacityMaskFilter" filterUnits="userSpaceOnUse" x="0.4" y="1" width="217.2" height="70">
									<feColorMatrix  type="matrix" values="1 0 0 0 0  0 1 0 0 0  0 0 1 0 0  0 0 0 1 0"/>
								</filter>
							</defs>
							<mask maskUnits="userSpaceOnUse" x="0.4" y="1" width="217.2" height="70" id="mask-2_1_">
								<g class="st0">
									<polygon id="path-1_1_" class="st1" points="0.4,1 217.5,1 217.5,71 0.4,71 									"/>
								</g>
							</mask>
							<polygon id="Fill-1" class="st2" points="214,11.5 214,18.5 214,15 214,11.5 214,8 212.3,8 210.5,8 210.5,4.5 207,4.5 207,1 
								203.5,1 77.4,1 73.9,1 70.4,1 66.9,1 63.4,1 59.9,1 56.4,1 52.9,1 49.4,1 45.9,1 42.4,1 38.9,1 35.4,1 31.9,1 28.4,1 24.9,1 
								21.4,1 17.9,1 14.4,1 10.9,1 10.9,4.5 7.4,4.5 7.4,8 3.9,8 3.9,11.5 0.4,11.5 0.4,60.5 3.9,60.5 3.9,53.5 3.9,57 3.9,60.5 
								3.9,64 5.6,64 7.4,64 7.4,67.5 10.9,67.5 10.9,71 14.4,71 63.4,71 66.9,71 70.4,71 73.9,71 77.4,71 80.9,71 84.4,71 165,71 
								168.5,71 172,71 175.5,71 179,71 182.5,71 186,71 189.5,71 193,71 196.5,71 200,71 203.5,71 207,71 207,67.5 210.5,67.5 
								210.5,64 214,64 214,60.5 217.5,60.5 217.5,11.5 							"/>
						</g>
						<polygon id="Fill-4" class="st3" points="213.8,20 212,20 212,16.5 208.5,16.5 208.5,13 205,13 85.9,13 82.4,13 78.9,13 
							75.4,13 71.9,13 68.4,13 64.9,13 61.4,13 57.9,13 54.4,13 50.9,13 47.4,13 43.9,13 40.4,13 36.9,13 33.4,13 29.9,13 26.4,13 
							22.9,13 19.4,13 19.4,16.5 15.9,16.5 15.9,20 12.4,20 12.4,23.5 12.4,27 12.4,30.5 12.4,34 12.4,58.5 12.4,62 15.9,62 
							15.9,65.5 19.4,65.5 19.4,66.2 19.4,69 22.9,69 26.4,69 29.9,69 33.4,69 36.9,69 40.4,69 43.9,69 47.4,69 47.4,69 64.9,69 
							68.4,69 71.9,69 75.4,69 78.9,69 82.4,69 85.9,69 205,69 208.5,69 208.5,65.5 212,65.5 212,62 213.8,62 215.5,62 215.5,58.5 
							215.5,34 215.5,30.5 215.5,27 215.5,23.5 215.5,20 						"/>
						<polygon id="Fill-6" class="st3" points="47.4,69 47.4,69 43.9,69 						"/>
						<g id="Clip-9">
						</g>
						<defs>
							<filter id="Adobe_OpacityMaskFilter_1_" filterUnits="userSpaceOnUse" x="15.9" y="16.5" width="3.5" height="3.5">
								<feColorMatrix  type="matrix" values="1 0 0 0 0  0 1 0 0 0  0 0 1 0 0  0 0 0 1 0"/>
							</filter>
						</defs>
						<mask maskUnits="userSpaceOnUse" x="15.9" y="16.5" width="3.5" height="3.5" id="mask-4_1_">
							<g class="st4">
								<polygon id="path-3_1_" class="st1" points="0,76 222.5,76 222.5,0.6 0,0.6 								"/>
							</g>
						</mask>
						<polygon id="Fill-8" class="st5" points="15.9,20 19.4,20 19.4,16.5 15.9,16.5 						"/>
						<defs>
							<filter id="Adobe_OpacityMaskFilter_2_" filterUnits="userSpaceOnUse" x="12.4" y="20" width="3.5" height="42">
								<feColorMatrix  type="matrix" values="1 0 0 0 0  0 1 0 0 0  0 0 1 0 0  0 0 0 1 0"/>
							</filter>
						</defs>
						<mask maskUnits="userSpaceOnUse" x="12.4" y="20" width="3.5" height="42" id="mask-4_2_">
							<g class="st6">
								<polygon id="path-3_2_" class="st1" points="0,76 222.5,76 222.5,0.6 0,0.6 								"/>
							</g>
						</mask>
						<polygon id="Fill-10" class="st7" points="12.4,23.5 12.4,27 12.4,30.5 12.4,55 12.4,58.5 12.4,62 15.9,62 15.9,58.5 15.9,55 
							15.9,30.5 15.9,27 15.9,23.5 15.9,20 12.4,20 						"/>
						<defs>
							<filter id="Adobe_OpacityMaskFilter_3_" filterUnits="userSpaceOnUse" x="15.9" y="62" width="3.5" height="3.5">
								<feColorMatrix  type="matrix" values="1 0 0 0 0  0 1 0 0 0  0 0 1 0 0  0 0 0 1 0"/>
							</filter>
						</defs>
						<mask maskUnits="userSpaceOnUse" x="15.9" y="62" width="3.5" height="3.5" id="mask-4_3_">
							<g class="st8">
								<polygon id="path-3_3_" class="st1" points="0,76 222.5,76 222.5,0.6 0,0.6 								"/>
							</g>
						</mask>
						<polygon id="Fill-11" class="st9" points="15.9,65.5 19.4,65.5 19.4,62 15.9,62 						"/>
						<defs>
							<filter id="Adobe_OpacityMaskFilter_4_" filterUnits="userSpaceOnUse" x="201.5" y="13" width="10.5" height="7">
								<feColorMatrix  type="matrix" values="1 0 0 0 0  0 1 0 0 0  0 0 1 0 0  0 0 0 1 0"/>
							</filter>
						</defs>
						<mask maskUnits="userSpaceOnUse" x="201.5" y="13" width="10.5" height="7" id="mask-4_4_">
							<g class="st10">
								<polygon id="path-3_4_" class="st1" points="0,76 222.5,76 222.5,0.6 0,0.6 								"/>
							</g>
						</mask>
						<polygon id="Fill-12" class="st11" points="208.5,16.5 208.5,13 205,13 201.5,13 201.5,16.5 205,16.5 208.5,16.5 208.5,20 
							212,20 212,16.5 						"/>
						<defs>
							<filter id="Adobe_OpacityMaskFilter_5_" filterUnits="userSpaceOnUse" x="212" y="20" width="3.5" height="42">
								<feColorMatrix  type="matrix" values="1 0 0 0 0  0 1 0 0 0  0 0 1 0 0  0 0 0 1 0"/>
							</filter>
						</defs>
						<mask maskUnits="userSpaceOnUse" x="212" y="20" width="3.5" height="42" id="mask-4_5_">
							<g class="st12">
								<polygon id="path-3_5_" class="st1" points="0,76 222.5,76 222.5,0.6 0,0.6 								"/>
							</g>
						</mask>
						<polygon id="Fill-13" class="st13" points="212,20 212,23.5 212,27 212,30.5 212,55 212,58.5 212,62 215.5,62 215.5,58.5 
							215.5,55 215.5,30.5 215.5,27 215.5,23.5 215.5,20 						"/>
						<defs>
							<filter id="Adobe_OpacityMaskFilter_6_" filterUnits="userSpaceOnUse" x="201.5" y="62" width="10.5" height="7">
								<feColorMatrix  type="matrix" values="1 0 0 0 0  0 1 0 0 0  0 0 1 0 0  0 0 0 1 0"/>
							</filter>
						</defs>
						<mask maskUnits="userSpaceOnUse" x="201.5" y="62" width="10.5" height="7" id="mask-4_6_">
							<g class="st14">
								<polygon id="path-3_6_" class="st1" points="0,76 222.5,76 222.5,0.6 0,0.6 								"/>
							</g>
						</mask>
						<polygon id="Fill-14" class="st15" points="208.5,65.5 205,65.5 201.5,65.5 201.5,69 205,69 208.5,69 208.5,65.5 212,65.5 
							212,62 208.5,62 						"/>
						<defs>
							<filter id="Adobe_OpacityMaskFilter_7_" filterUnits="userSpaceOnUse" x="19.4" y="13" width="182.1" height="3.5">
								<feColorMatrix  type="matrix" values="1 0 0 0 0  0 1 0 0 0  0 0 1 0 0  0 0 0 1 0"/>
							</filter>
						</defs>
						<mask maskUnits="userSpaceOnUse" x="19.4" y="13" width="182.1" height="3.5" id="mask-4_7_">
							<g class="st16">
								<polygon id="path-3_7_" class="st1" points="0,76 222.5,76 222.5,0.6 0,0.6 								"/>
							</g>
						</mask>
						<polygon id="Fill-15" class="st17" points="194.5,13 191,13 187.5,13 184,13 180.5,13 177,13 57.9,13 54.4,13 50.9,13 
							47.4,13 43.9,13 40.4,13 36.9,13 33.4,13 29.9,13 26.4,13 22.9,13 19.4,13 19.4,16.5 22.9,16.5 26.4,16.5 29.9,16.5 
							33.4,16.5 36.9,16.5 40.4,16.5 43.9,16.5 47.4,16.5 50.9,16.5 54.4,16.5 57.9,16.5 177,16.5 180.5,16.5 184,16.5 187.5,16.5 
							191,16.5 194.5,16.5 198,16.5 201.5,16.5 201.5,13 198,13 						"/>
						<defs>
							<filter id="Adobe_OpacityMaskFilter_8_" filterUnits="userSpaceOnUse" x="19.4" y="65.5" width="182.1" height="3.5">
								<feColorMatrix  type="matrix" values="1 0 0 0 0  0 1 0 0 0  0 0 1 0 0  0 0 0 1 0"/>
							</filter>
						</defs>
						<mask maskUnits="userSpaceOnUse" x="19.4" y="65.5" width="182.1" height="3.5" id="mask-4_8_">
							<g class="st18">
								<polygon id="path-3_8_" class="st1" points="0,76 222.5,76 222.5,0.6 0,0.6 								"/>
							</g>
						</mask>
						<polygon id="Fill-16" class="st19" points="22.9,69 26.4,69 29.9,69 33.4,69 36.9,69 40.4,69 43.9,69 47.4,69 177,69 
							180.5,69 184,69 185.7,69 187.5,69 191,69 194.5,69 198,69 201.5,69 201.5,65.5 198,65.5 194.5,65.5 191,65.5 187.5,65.5 
							185.7,65.5 184,65.5 180.5,65.5 177,65.5 47.4,65.5 43.9,65.5 40.4,65.5 36.9,65.5 33.4,65.5 29.9,65.5 26.4,65.5 22.9,65.5 
							19.4,65.5 19.4,69 						"/>
					</g>
					<polygon id="Fill-18" class="st20" points="10.5,1 10.5,4.5 7,4.5 7,8 3.5,8 3.5,11.5 0,11.5 0,60.5 3.5,60.5 3.5,53.5 3.5,57 
						3.5,60.5 3.5,64 5.3,64 7,64 7,67.5 10.5,67.5 10.5,71 14,71 63,71 66.5,71 70,71 73.6,71 77.1,71 80.6,71 84.1,71 164.6,71 
						168.1,71 171.6,71 175.1,71 178.6,71 182.1,71 185.6,71 189.1,71 192.6,71 196.1,71 199.6,71 203.1,71 206.6,71 206.6,67.5 
						210.1,67.5 210.1,64 213.6,64 213.6,60.5 217.2,60.5 217.2,11.5 213.6,11.5 213.6,8 211.9,8 210.1,8 210.1,4.5 206.6,4.5 
						206.6,1 					"/>
					<polygon id="Fill-19" class="st21" points="208.4,15 206.6,15 206.6,11.5 203.1,11.5 203.1,8 199.6,8 80.6,8 80.6,8 77.1,8 
						73.6,8 70,8 66.5,8 63,8 59.5,8 56,8 52.5,8 49,8 45.5,8 42,8 38.5,8 35,8 31.5,8 28,8 24.5,8 21,8 17.5,8 14,8 14,11.5 
						10.5,11.5 10.5,15 7,15 7,18.5 7,22 7,25.5 7,29 7,53.5 7,57 10.5,57 10.5,60.5 14,60.5 14,61.3 14,64 17.5,64 21,64 24.5,64 
						28,64 31.5,64 35,64 38.5,64 42,64 42,64 59.5,64 63,64 66.5,64 70,64 73.6,64 77.1,64 80.6,64 80.6,64 199.6,64 203.1,64 
						203.1,60.5 206.6,60.5 206.6,57 208.4,57 210.1,57 210.1,53.5 210.1,29 210.1,25.5 210.1,22 210.1,18.5 210.1,15 					"/>
					<g id="buy-now">
						<g class="st22">
							<g class="st23">
								<path class="st24" d="M24.6,23.8h8.7c2.9,0,5.1,0.6,6.7,1.8s2.4,2.8,2.4,4.7c0,2.8-1.6,4-3.1,4.8c1.8,0.7,3.9,2.1,3.9,5.2
									c0,4-3.6,6.8-9.2,6.8h-9.4V23.8z M30.2,33.2h2.5c1.6,0,2.6-0.2,3.1-0.6c0.5-0.4,0.8-1,0.8-1.7c0-1.3-0.7-2.5-3.8-2.5h-2.6
									V33.2z M30.2,42.5h3.4c3.2,0,3.9-1.4,3.9-2.6c0-1.3-0.8-2.6-3.9-2.6h-3.3V42.5z"/>
								<path class="st24" d="M50.2,45c-1.4-1.6-2.1-3.8-2.1-6.7V23.8h5.6v14.5c0,1.7,0.3,2.8,0.8,3.4s1.4,0.9,2.5,0.9
									s2-0.3,2.5-0.9s0.8-1.8,0.8-3.4V23.8h5.6v14.5c0,5.9-2.7,9.1-9,9.1C53.9,47.4,51.6,46.6,50.2,45z"/>
								<path class="st24" d="M78.2,38l-8.6-14.1h6.6l2.6,4.7l2.1,5l2.4-5l2.7-4.7h6.2l-8.6,14.1V47h-5.6V38z"/>
								<path class="st24" d="M120.6,23.8h6.8l5.9,17.8l-0.6-7.9v-10h4.7V47h-6.8l-5.9-17.8l0.6,7.8v10h-4.8V23.8z"/>
								<path class="st24" d="M145.3,44.3c-1.6-2.1-2.4-5-2.4-8.8c0-7.3,3.2-12.1,10.2-12.1c7,0,10.1,4.5,10.1,11.8
									c0,7.3-3.1,12.1-10.3,12.1C149.5,47.4,146.9,46.4,145.3,44.3z M157.5,35.4c0-4.2-0.7-7.2-4.5-7.2c-3.8,0-4.4,3-4.4,7.2
									c0,4.1,0.7,7.2,4.4,7.2C156.8,42.6,157.5,39.5,157.5,35.4z"/>
								<path class="st24" d="M165.9,23.8h5.4l0.8,10.8l0.3,7.2L175,31h4.2l2.6,10.7l0.4-7.2l0.8-10.8h5.2L185.6,47h-6.2l-2.4-9.1
									l-2.3,9.1h-6.2L165.9,23.8z"/>
							</g>
						</g>
						<g>
							<g class="st23">
								<path class="st24" d="M24.6,23.8h8.7c2.9,0,5.1,0.6,6.7,1.8s2.4,2.8,2.4,4.7c0,2.8-1.6,4-3.1,4.8c1.8,0.7,3.9,2.1,3.9,5.2
									c0,4-3.6,6.8-9.2,6.8h-9.4V23.8z M30.2,33.2h2.5c1.6,0,2.6-0.2,3.1-0.6c0.5-0.4,0.8-1,0.8-1.7c0-1.3-0.7-2.5-3.8-2.5h-2.6
									V33.2z M30.2,42.5h3.4c3.2,0,3.9-1.4,3.9-2.6c0-1.3-0.8-2.6-3.9-2.6h-3.3V42.5z"/>
								<path class="st24" d="M50.2,45c-1.4-1.6-2.1-3.8-2.1-6.7V23.8h5.6v14.5c0,1.7,0.3,2.8,0.8,3.4s1.4,0.9,2.5,0.9
									s2-0.3,2.5-0.9s0.8-1.8,0.8-3.4V23.8h5.6v14.5c0,5.9-2.7,9.1-9,9.1C53.9,47.4,51.6,46.6,50.2,45z"/>
								<path class="st24" d="M78.2,38l-8.6-14.1h6.6l2.6,4.7l2.1,5l2.4-5l2.7-4.7h6.2l-8.6,14.1V47h-5.6V38z"/>
								<path class="st24" d="M120.6,23.8h6.8l5.9,17.8l-0.6-7.9v-10h4.7V47h-6.8l-5.9-17.8l0.6,7.8v10h-4.8V23.8z"/>
								<path class="st24" d="M145.3,44.3c-1.6-2.1-2.4-5-2.4-8.8c0-7.3,3.2-12.1,10.2-12.1c7,0,10.1,4.5,10.1,11.8
									c0,7.3-3.1,12.1-10.3,12.1C149.5,47.4,146.9,46.4,145.3,44.3z M157.5,35.4c0-4.2-0.7-7.2-4.5-7.2c-3.8,0-4.4,3-4.4,7.2
									c0,4.1,0.7,7.2,4.4,7.2C156.8,42.6,157.5,39.5,157.5,35.4z"/>
								<path class="st24" d="M165.9,23.8h5.4l0.8,10.8l0.3,7.2L175,31h4.2l2.6,10.7l0.4-7.2l0.8-10.8h5.2L185.6,47h-6.2l-2.4-9.1
									l-2.3,9.1h-6.2L165.9,23.8z"/>
							</g>
						</g>
					</g>
					<path id="Fill-20" class="st20" d="M38.5,64H42H38.5z"/>
					<polygon id="Fill-21" class="st25" points="10.5,15 14,15 14,11.5 10.5,11.5 					"/>
					<polygon id="Fill-22" class="st25" points="7,18.5 7,22 7,25.5 7,50 7,53.5 7,57 10.5,57 10.5,53.5 10.5,50 10.5,25.5 10.5,22 
						10.5,18.5 10.5,15 7,15 					"/>
					<polygon id="Fill-23" class="st25" points="10.5,60.5 14,60.5 14,57 10.5,57 					"/>
					<polygon id="Fill-24" class="st25" points="203.1,11.5 203.1,8 199.6,8 196.1,8 196.1,11.5 199.6,11.5 203.1,11.5 203.1,15 
						206.6,15 206.6,11.5 					"/>
					<polygon id="Fill-25" class="st25" points="206.6,15 206.6,18.5 206.6,22 206.6,25.5 206.6,50 206.6,53.5 206.6,57 210.1,57 
						210.1,53.5 210.1,50 210.1,25.5 210.1,22 210.1,18.5 210.1,15 					"/>
					<polygon id="Fill-26" class="st25" points="203.1,60.5 199.6,60.5 196.1,60.5 196.1,64 199.6,64 203.1,64 203.1,60.5 
						206.6,60.5 206.6,57 203.1,57 					"/>
					<polygon id="Fill-27" class="st25" points="189.1,8 185.6,8 182.1,8 178.6,8 175.1,8 171.6,8 52.5,8 49,8 45.5,8 42,8 38.5,8 
						35,8 31.5,8 28,8 24.5,8 21,8 17.5,8 14,8 14,11.5 17.5,11.5 21,11.5 24.5,11.5 28,11.5 31.5,11.5 35,11.5 38.5,11.5 42,11.5 
						45.5,11.5 49,11.5 52.5,11.5 171.6,11.5 175.1,11.5 178.6,11.5 182.1,11.5 185.6,11.5 189.1,11.5 192.6,11.5 196.1,11.5 
						196.1,8 192.6,8 					"/>
					<polygon id="Fill-28" class="st25" points="17.5,64 21,64 24.5,64 28,64 31.5,64 35,64 38.5,64 42,64 171.6,64 175.1,64 
						178.6,64 180.4,64 182.1,64 185.6,64 189.1,64 192.6,64 196.1,64 196.1,60.5 192.6,60.5 189.1,60.5 185.6,60.5 182.1,60.5 
						180.4,60.5 178.6,60.5 175.1,60.5 171.6,60.5 42,60.5 38.5,60.5 35,60.5 31.5,60.5 28,60.5 24.5,60.5 21,60.5 17.5,60.5 
						14,60.5 14,64 					"/>
				</g>
			</g>
		</g>
	</g>
</g>
</svg>
